<mxfile host="Electron" modified="2024-04-28T11:07:34.301Z" agent="Mozilla/5.0 (Windows NT 10.0; Win64; x64) AppleWebKit/537.36 (KHTML, like Gecko) draw.io/24.2.5 Chrome/120.0.6099.109 Electron/28.1.0 Safari/537.36" etag="ehadYPARKnPY19U9kRPB" version="24.2.5" type="device">
  <diagram id="C5RBs43oDa-KdzZeNtuy" name="Page-1">
    <mxGraphModel dx="1990" dy="1852" grid="1" gridSize="10" guides="1" tooltips="1" connect="1" arrows="1" fold="1" page="1" pageScale="1" pageWidth="827" pageHeight="1169" math="0" shadow="0">
      <root>
        <mxCell id="WIyWlLk6GJQsqaUBKTNV-0" />
        <mxCell id="WIyWlLk6GJQsqaUBKTNV-1" parent="WIyWlLk6GJQsqaUBKTNV-0" />
        <mxCell id="-LXnq8vCpI6ecaMu8sqt-2" value="mahjongGame" style="swimlane;fontStyle=1;align=center;verticalAlign=top;childLayout=stackLayout;horizontal=1;startSize=26;horizontalStack=0;resizeParent=1;resizeParentMax=0;resizeLast=0;collapsible=1;marginBottom=0;whiteSpace=wrap;html=1;fillColor=#d5e8d4;strokeColor=#82b366;" parent="WIyWlLk6GJQsqaUBKTNV-1" vertex="1">
          <mxGeometry x="310" y="50" width="200" height="228" as="geometry" />
        </mxCell>
        <mxCell id="-LXnq8vCpI6ecaMu8sqt-3" value="- player1: player&lt;div&gt;- player2: player&lt;/div&gt;&lt;div&gt;- player3: player&lt;/div&gt;&lt;div&gt;- player4: player&lt;/div&gt;&lt;div&gt;- mahjongTable: mahjongTable&lt;/div&gt;&lt;div&gt;- playerListener: playerListener&lt;br&gt;&lt;/div&gt;&lt;div&gt;- gameStatus: String&lt;/div&gt;" style="text;strokeColor=#82b366;fillColor=#d5e8d4;align=left;verticalAlign=top;spacingLeft=4;spacingRight=4;overflow=hidden;rotatable=0;points=[[0,0.5],[1,0.5]];portConstraint=eastwest;whiteSpace=wrap;html=1;" parent="-LXnq8vCpI6ecaMu8sqt-2" vertex="1">
          <mxGeometry y="26" width="200" height="104" as="geometry" />
        </mxCell>
        <mxCell id="-LXnq8vCpI6ecaMu8sqt-4" value="" style="line;strokeWidth=1;fillColor=#d5e8d4;align=left;verticalAlign=middle;spacingTop=-1;spacingLeft=3;spacingRight=3;rotatable=0;labelPosition=right;points=[];portConstraint=eastwest;strokeColor=#82b366;" parent="-LXnq8vCpI6ecaMu8sqt-2" vertex="1">
          <mxGeometry y="130" width="200" height="8" as="geometry" />
        </mxCell>
        <mxCell id="-LXnq8vCpI6ecaMu8sqt-5" value="+ getInstence(type): mahjongGame&lt;div&gt;&lt;span style=&quot;background-color: initial;&quot;&gt;+ startNewGame(): void&lt;/span&gt;&lt;/div&gt;&lt;div&gt;&lt;span style=&quot;background-color: initial;&quot;&gt;+ isGameOver(): void&lt;/span&gt;&lt;/div&gt;&lt;div&gt;&lt;span style=&quot;background-color: initial;&quot;&gt;+ isPaused(): boolean&lt;/span&gt;&lt;/div&gt;&lt;div&gt;&lt;span style=&quot;background-color: initial;&quot;&gt;+ checkForPause(): void&lt;/span&gt;&lt;/div&gt;&lt;div&gt;&lt;span style=&quot;background-color: initial;&quot;&gt;+&amp;nbsp;swop(): void&lt;/span&gt;&lt;/div&gt;&lt;div&gt;&lt;span style=&quot;background-color: initial;&quot;&gt;+ isRoundEnd(): void&lt;/span&gt;&lt;/div&gt;" style="text;strokeColor=#82b366;fillColor=#d5e8d4;align=left;verticalAlign=top;spacingLeft=4;spacingRight=4;overflow=hidden;rotatable=0;points=[[0,0.5],[1,0.5]];portConstraint=eastwest;whiteSpace=wrap;html=1;" parent="-LXnq8vCpI6ecaMu8sqt-2" vertex="1">
          <mxGeometry y="138" width="200" height="90" as="geometry" />
        </mxCell>
        <mxCell id="-LXnq8vCpI6ecaMu8sqt-6" value="player" style="swimlane;fontStyle=1;align=center;verticalAlign=top;childLayout=stackLayout;horizontal=1;startSize=26;horizontalStack=0;resizeParent=1;resizeParentMax=0;resizeLast=0;collapsible=1;marginBottom=0;whiteSpace=wrap;html=1;fillColor=#d5e8d4;strokeColor=#82b366;" parent="WIyWlLk6GJQsqaUBKTNV-1" vertex="1">
          <mxGeometry x="90" y="152" width="190" height="178" as="geometry" />
        </mxCell>
        <mxCell id="-LXnq8vCpI6ecaMu8sqt-7" value="- location: PlayerLocation&lt;div&gt;- playerTileWall:ArrayList&amp;lt;Tiles&amp;gt;&lt;/div&gt;&lt;div&gt;- name: String&lt;/div&gt;" style="text;strokeColor=#82b366;fillColor=#d5e8d4;align=left;verticalAlign=top;spacingLeft=4;spacingRight=4;overflow=hidden;rotatable=0;points=[[0,0.5],[1,0.5]];portConstraint=eastwest;whiteSpace=wrap;html=1;" parent="-LXnq8vCpI6ecaMu8sqt-6" vertex="1">
          <mxGeometry y="26" width="190" height="64" as="geometry" />
        </mxCell>
        <mxCell id="-LXnq8vCpI6ecaMu8sqt-8" value="" style="line;strokeWidth=1;fillColor=#d5e8d4;align=left;verticalAlign=middle;spacingTop=-1;spacingLeft=3;spacingRight=3;rotatable=0;labelPosition=right;points=[];portConstraint=eastwest;strokeColor=#82b366;" parent="-LXnq8vCpI6ecaMu8sqt-6" vertex="1">
          <mxGeometry y="90" width="190" height="8" as="geometry" />
        </mxCell>
        <mxCell id="-LXnq8vCpI6ecaMu8sqt-9" value="&lt;div&gt;+ player(String)&lt;/div&gt;+ getName(): String&lt;div&gt;+ getPlayerTileWall(): ArrayList&amp;lt;Tiles&amp;gt;&lt;/div&gt;&lt;div&gt;+ getLocation(): Location&amp;nbsp;&lt;/div&gt;" style="text;strokeColor=#82b366;fillColor=#d5e8d4;align=left;verticalAlign=top;spacingLeft=4;spacingRight=4;overflow=hidden;rotatable=0;points=[[0,0.5],[1,0.5]];portConstraint=eastwest;whiteSpace=wrap;html=1;" parent="-LXnq8vCpI6ecaMu8sqt-6" vertex="1">
          <mxGeometry y="98" width="190" height="80" as="geometry" />
        </mxCell>
        <mxCell id="-LXnq8vCpI6ecaMu8sqt-11" value="mahjongTable" style="swimlane;fontStyle=1;align=center;verticalAlign=top;childLayout=stackLayout;horizontal=1;startSize=26;horizontalStack=0;resizeParent=1;resizeParentMax=0;resizeLast=0;collapsible=1;marginBottom=0;whiteSpace=wrap;html=1;fillColor=#d5e8d4;strokeColor=#82b366;" parent="WIyWlLk6GJQsqaUBKTNV-1" vertex="1">
          <mxGeometry x="530" y="232" width="180" height="158" as="geometry" />
        </mxCell>
        <mxCell id="-LXnq8vCpI6ecaMu8sqt-12" value="- dice1: dice&lt;div&gt;- dice2: dice&lt;/div&gt;&lt;div&gt;- disTileWall: ArrayList&amp;lt;Tiles&amp;gt;&lt;/div&gt;&lt;div&gt;- TableTileWall:&amp;nbsp;&lt;span style=&quot;background-color: initial;&quot;&gt;ArrayList&amp;lt;Tiles&amp;gt;&lt;/span&gt;&lt;/div&gt;" style="text;strokeColor=#82b366;fillColor=#d5e8d4;align=left;verticalAlign=top;spacingLeft=4;spacingRight=4;overflow=hidden;rotatable=0;points=[[0,0.5],[1,0.5]];portConstraint=eastwest;whiteSpace=wrap;html=1;" parent="-LXnq8vCpI6ecaMu8sqt-11" vertex="1">
          <mxGeometry y="26" width="180" height="74" as="geometry" />
        </mxCell>
        <mxCell id="-LXnq8vCpI6ecaMu8sqt-13" value="" style="line;strokeWidth=1;fillColor=#d5e8d4;align=left;verticalAlign=middle;spacingTop=-1;spacingLeft=3;spacingRight=3;rotatable=0;labelPosition=right;points=[];portConstraint=eastwest;strokeColor=#82b366;" parent="-LXnq8vCpI6ecaMu8sqt-11" vertex="1">
          <mxGeometry y="100" width="180" height="8" as="geometry" />
        </mxCell>
        <mxCell id="-LXnq8vCpI6ecaMu8sqt-14" value="&lt;div&gt;+ mahjongTable()&lt;/div&gt;+ getInstence(): mahjongTable&lt;div&gt;+ tossDices(): int&lt;/div&gt;" style="text;strokeColor=#82b366;fillColor=#d5e8d4;align=left;verticalAlign=top;spacingLeft=4;spacingRight=4;overflow=hidden;rotatable=0;points=[[0,0.5],[1,0.5]];portConstraint=eastwest;whiteSpace=wrap;html=1;" parent="-LXnq8vCpI6ecaMu8sqt-11" vertex="1">
          <mxGeometry y="108" width="180" height="50" as="geometry" />
        </mxCell>
        <mxCell id="-LXnq8vCpI6ecaMu8sqt-17" value="Tiles" style="swimlane;fontStyle=1;align=center;verticalAlign=top;childLayout=stackLayout;horizontal=1;startSize=26;horizontalStack=0;resizeParent=1;resizeParentMax=0;resizeLast=0;collapsible=1;marginBottom=0;whiteSpace=wrap;html=1;fillColor=#d5e8d4;strokeColor=#82b366;" parent="WIyWlLk6GJQsqaUBKTNV-1" vertex="1">
          <mxGeometry x="280" y="790" width="160" height="110" as="geometry" />
        </mxCell>
        <mxCell id="-LXnq8vCpI6ecaMu8sqt-18" value="- suit: int" style="text;strokeColor=#82b366;fillColor=#d5e8d4;align=left;verticalAlign=top;spacingLeft=4;spacingRight=4;overflow=hidden;rotatable=0;points=[[0,0.5],[1,0.5]];portConstraint=eastwest;whiteSpace=wrap;html=1;" parent="-LXnq8vCpI6ecaMu8sqt-17" vertex="1">
          <mxGeometry y="26" width="160" height="24" as="geometry" />
        </mxCell>
        <mxCell id="-LXnq8vCpI6ecaMu8sqt-19" value="" style="line;strokeWidth=1;fillColor=#d5e8d4;align=left;verticalAlign=middle;spacingTop=-1;spacingLeft=3;spacingRight=3;rotatable=0;labelPosition=right;points=[];portConstraint=eastwest;strokeColor=#82b366;" parent="-LXnq8vCpI6ecaMu8sqt-17" vertex="1">
          <mxGeometry y="50" width="160" height="8" as="geometry" />
        </mxCell>
        <mxCell id="-LXnq8vCpI6ecaMu8sqt-20" value="+ Tiles(int, int)&lt;div&gt;+ getSuit(): int&lt;/div&gt;&lt;div&gt;+ setSuit: void&lt;/div&gt;" style="text;strokeColor=#82b366;fillColor=#d5e8d4;align=left;verticalAlign=top;spacingLeft=4;spacingRight=4;overflow=hidden;rotatable=0;points=[[0,0.5],[1,0.5]];portConstraint=eastwest;whiteSpace=wrap;html=1;" parent="-LXnq8vCpI6ecaMu8sqt-17" vertex="1">
          <mxGeometry y="58" width="160" height="52" as="geometry" />
        </mxCell>
        <mxCell id="-LXnq8vCpI6ecaMu8sqt-21" value="dice" style="swimlane;fontStyle=1;align=center;verticalAlign=top;childLayout=stackLayout;horizontal=1;startSize=26;horizontalStack=0;resizeParent=1;resizeParentMax=0;resizeLast=0;collapsible=1;marginBottom=0;whiteSpace=wrap;html=1;fillColor=#d5e8d4;strokeColor=#82b366;" parent="WIyWlLk6GJQsqaUBKTNV-1" vertex="1">
          <mxGeometry x="720" y="410" width="160" height="100" as="geometry" />
        </mxCell>
        <mxCell id="-LXnq8vCpI6ecaMu8sqt-22" value="+ number: int" style="text;strokeColor=#82b366;fillColor=#d5e8d4;align=left;verticalAlign=top;spacingLeft=4;spacingRight=4;overflow=hidden;rotatable=0;points=[[0,0.5],[1,0.5]];portConstraint=eastwest;whiteSpace=wrap;html=1;" parent="-LXnq8vCpI6ecaMu8sqt-21" vertex="1">
          <mxGeometry y="26" width="160" height="26" as="geometry" />
        </mxCell>
        <mxCell id="-LXnq8vCpI6ecaMu8sqt-23" value="" style="line;strokeWidth=1;fillColor=#d5e8d4;align=left;verticalAlign=middle;spacingTop=-1;spacingLeft=3;spacingRight=3;rotatable=0;labelPosition=right;points=[];portConstraint=eastwest;strokeColor=#82b366;" parent="-LXnq8vCpI6ecaMu8sqt-21" vertex="1">
          <mxGeometry y="52" width="160" height="8" as="geometry" />
        </mxCell>
        <mxCell id="-LXnq8vCpI6ecaMu8sqt-24" value="&lt;div&gt;+ dice()&lt;/div&gt;+ toss(): int" style="text;strokeColor=#82b366;fillColor=#d5e8d4;align=left;verticalAlign=top;spacingLeft=4;spacingRight=4;overflow=hidden;rotatable=0;points=[[0,0.5],[1,0.5]];portConstraint=eastwest;whiteSpace=wrap;html=1;" parent="-LXnq8vCpI6ecaMu8sqt-21" vertex="1">
          <mxGeometry y="60" width="160" height="40" as="geometry" />
        </mxCell>
        <mxCell id="-LXnq8vCpI6ecaMu8sqt-25" value="TileWall" style="swimlane;fontStyle=1;align=center;verticalAlign=top;childLayout=stackLayout;horizontal=1;startSize=26;horizontalStack=0;resizeParent=1;resizeParentMax=0;resizeLast=0;collapsible=1;marginBottom=0;whiteSpace=wrap;html=1;fillColor=#d5e8d4;strokeColor=#82b366;" parent="WIyWlLk6GJQsqaUBKTNV-1" vertex="1">
          <mxGeometry x="290" y="310" width="210" height="230" as="geometry" />
        </mxCell>
        <mxCell id="-LXnq8vCpI6ecaMu8sqt-26" value="+ Player1TileWall: ArrayList&amp;lt;Tiles&amp;gt;&lt;div&gt;+ Player2TileWall: ArrayList&amp;lt;Tiles&amp;gt;&lt;/div&gt;&lt;div&gt;+ Player3TileWall: ArrayList&amp;lt;Tiles&amp;gt;&lt;/div&gt;&lt;div&gt;+ Player4TileWall: ArrayList&amp;lt;Tiles&amp;gt;&lt;/div&gt;&lt;div&gt;&lt;div&gt;+TileFactory: TileFactory&lt;/div&gt;&lt;div&gt;+&lt;span style=&quot;background-color: initial;&quot;&gt;&amp;nbsp;TableTileWall: ArrayList&amp;lt;Tiles&amp;gt;&lt;/span&gt;&lt;/div&gt;&lt;/div&gt;&lt;div&gt;&lt;span style=&quot;background-color: initial;&quot;&gt;+ disTileWall&lt;/span&gt;&lt;/div&gt;&lt;div&gt;&lt;span style=&quot;background-color: initial;&quot;&gt;&lt;br&gt;&lt;/span&gt;&lt;/div&gt;" style="text;strokeColor=#82b366;fillColor=#d5e8d4;align=left;verticalAlign=top;spacingLeft=4;spacingRight=4;overflow=hidden;rotatable=0;points=[[0,0.5],[1,0.5]];portConstraint=eastwest;whiteSpace=wrap;html=1;" parent="-LXnq8vCpI6ecaMu8sqt-25" vertex="1">
          <mxGeometry y="26" width="210" height="114" as="geometry" />
        </mxCell>
        <mxCell id="-LXnq8vCpI6ecaMu8sqt-27" value="" style="line;strokeWidth=1;fillColor=#d5e8d4;align=left;verticalAlign=middle;spacingTop=-1;spacingLeft=3;spacingRight=3;rotatable=0;labelPosition=right;points=[];portConstraint=eastwest;strokeColor=#82b366;" parent="-LXnq8vCpI6ecaMu8sqt-25" vertex="1">
          <mxGeometry y="140" width="210" height="8" as="geometry" />
        </mxCell>
        <mxCell id="-LXnq8vCpI6ecaMu8sqt-28" value="+ TileWall(int)&lt;div&gt;+ getPlayerTileWall(int): ArrayList&amp;lt;Tiles&amp;gt;&lt;/div&gt;&lt;div&gt;+ getTableTileWall(): ArrayList&amp;lt;Tiles&amp;gt;&lt;/div&gt;&lt;div&gt;+ getDisTileWall(): ArrayList&amp;lt;Tiles&amp;gt;&lt;/div&gt;" style="text;strokeColor=#82b366;fillColor=#d5e8d4;align=left;verticalAlign=top;spacingLeft=4;spacingRight=4;overflow=hidden;rotatable=0;points=[[0,0.5],[1,0.5]];portConstraint=eastwest;whiteSpace=wrap;html=1;" parent="-LXnq8vCpI6ecaMu8sqt-25" vertex="1">
          <mxGeometry y="148" width="210" height="82" as="geometry" />
        </mxCell>
        <mxCell id="C3JBqGQTmtrp9U-Emt1c-11" value="GameManager" style="swimlane;fontStyle=1;align=center;verticalAlign=top;childLayout=stackLayout;horizontal=1;startSize=26;horizontalStack=0;resizeParent=1;resizeParentMax=0;resizeLast=0;collapsible=1;marginBottom=0;whiteSpace=wrap;html=1;fillColor=#f8cecc;strokeColor=#b85450;" parent="WIyWlLk6GJQsqaUBKTNV-1" vertex="1">
          <mxGeometry x="300" y="-300" width="190" height="260" as="geometry" />
        </mxCell>
        <mxCell id="C3JBqGQTmtrp9U-Emt1c-12" value="- RuleScreen: RuleScreen&lt;div&gt;- GameScreen: GameScreen&lt;/div&gt;&lt;div&gt;- LoginScreen: LoginScreen&lt;/div&gt;&lt;div&gt;- ScoreScreen: ScoreScreen&lt;/div&gt;&lt;div&gt;- MenuScreen: MenuScreen&lt;/div&gt;&lt;div&gt;- mahjongGame: mahjongGame&lt;/div&gt;" style="text;strokeColor=#b85450;fillColor=#f8cecc;align=left;verticalAlign=top;spacingLeft=4;spacingRight=4;overflow=hidden;rotatable=0;points=[[0,0.5],[1,0.5]];portConstraint=eastwest;whiteSpace=wrap;html=1;" parent="C3JBqGQTmtrp9U-Emt1c-11" vertex="1">
          <mxGeometry y="26" width="190" height="104" as="geometry" />
        </mxCell>
        <mxCell id="C3JBqGQTmtrp9U-Emt1c-13" value="" style="line;strokeWidth=1;fillColor=#f8cecc;align=left;verticalAlign=middle;spacingTop=-1;spacingLeft=3;spacingRight=3;rotatable=0;labelPosition=right;points=[];portConstraint=eastwest;strokeColor=#b85450;" parent="C3JBqGQTmtrp9U-Emt1c-11" vertex="1">
          <mxGeometry y="130" width="190" height="8" as="geometry" />
        </mxCell>
        <mxCell id="C3JBqGQTmtrp9U-Emt1c-14" value="&lt;div&gt;+ ShowRuleScreen(): void&lt;/div&gt;&lt;div&gt;+ ShowGameScreen(): void&lt;/div&gt;&lt;div&gt;+ ShowLoginScreen(): void&lt;/div&gt;&lt;div&gt;+ ShowScoreScreen(): void&lt;/div&gt;&lt;div&gt;+ ShowMenuScreen(): void&lt;/div&gt;+ run(): void&lt;div&gt;+ exitGame(): void&lt;/div&gt;" style="text;strokeColor=#b85450;fillColor=#f8cecc;align=left;verticalAlign=top;spacingLeft=4;spacingRight=4;overflow=hidden;rotatable=0;points=[[0,0.5],[1,0.5]];portConstraint=eastwest;whiteSpace=wrap;html=1;" parent="C3JBqGQTmtrp9U-Emt1c-11" vertex="1">
          <mxGeometry y="138" width="190" height="122" as="geometry" />
        </mxCell>
        <mxCell id="C3JBqGQTmtrp9U-Emt1c-15" value="" style="endArrow=open;html=1;endSize=12;startArrow=diamondThin;startSize=14;startFill=1;edgeStyle=orthogonalEdgeStyle;rounded=0;entryX=0.632;entryY=0.002;entryDx=0;entryDy=0;entryPerimeter=0;" parent="WIyWlLk6GJQsqaUBKTNV-1" target="-LXnq8vCpI6ecaMu8sqt-6" edge="1">
          <mxGeometry x="1" y="-184" relative="1" as="geometry">
            <mxPoint x="310" y="150" as="sourcePoint" />
            <mxPoint x="220" y="190" as="targetPoint" />
            <mxPoint x="180" y="-144" as="offset" />
            <Array as="points">
              <mxPoint x="310" y="150" />
              <mxPoint x="295" y="150" />
              <mxPoint x="295" y="100" />
              <mxPoint x="210" y="100" />
            </Array>
          </mxGeometry>
        </mxCell>
        <mxCell id="C3JBqGQTmtrp9U-Emt1c-16" value="1" style="edgeLabel;resizable=0;html=1;align=left;verticalAlign=top;" parent="C3JBqGQTmtrp9U-Emt1c-15" connectable="0" vertex="1">
          <mxGeometry x="-1" relative="1" as="geometry">
            <mxPoint x="-30" as="offset" />
          </mxGeometry>
        </mxCell>
        <mxCell id="C3JBqGQTmtrp9U-Emt1c-17" value="4" style="edgeLabel;resizable=0;html=1;align=right;verticalAlign=top;" parent="C3JBqGQTmtrp9U-Emt1c-15" connectable="0" vertex="1">
          <mxGeometry x="1" relative="1" as="geometry">
            <mxPoint x="20" y="-30" as="offset" />
          </mxGeometry>
        </mxCell>
        <mxCell id="C3JBqGQTmtrp9U-Emt1c-18" value="" style="endArrow=open;html=1;endSize=12;startArrow=diamondThin;startSize=14;startFill=1;edgeStyle=orthogonalEdgeStyle;rounded=0;entryX=0.5;entryY=0;entryDx=0;entryDy=0;exitX=1;exitY=0.5;exitDx=0;exitDy=0;" parent="WIyWlLk6GJQsqaUBKTNV-1" source="-LXnq8vCpI6ecaMu8sqt-2" target="-LXnq8vCpI6ecaMu8sqt-11" edge="1">
          <mxGeometry relative="1" as="geometry">
            <mxPoint x="430" y="180" as="sourcePoint" />
            <mxPoint x="590" y="180" as="targetPoint" />
          </mxGeometry>
        </mxCell>
        <mxCell id="C3JBqGQTmtrp9U-Emt1c-19" value="1" style="edgeLabel;resizable=0;html=1;align=left;verticalAlign=top;" parent="C3JBqGQTmtrp9U-Emt1c-18" connectable="0" vertex="1">
          <mxGeometry x="-1" relative="1" as="geometry" />
        </mxCell>
        <mxCell id="C3JBqGQTmtrp9U-Emt1c-20" value="1" style="edgeLabel;resizable=0;html=1;align=right;verticalAlign=top;" parent="C3JBqGQTmtrp9U-Emt1c-18" connectable="0" vertex="1">
          <mxGeometry x="1" relative="1" as="geometry">
            <mxPoint x="20" y="-30" as="offset" />
          </mxGeometry>
        </mxCell>
        <mxCell id="C3JBqGQTmtrp9U-Emt1c-21" value="" style="endArrow=open;html=1;endSize=12;startArrow=diamondThin;startSize=14;startFill=1;edgeStyle=orthogonalEdgeStyle;rounded=0;entryX=0.5;entryY=0;entryDx=0;entryDy=0;exitX=0.993;exitY=0.662;exitDx=0;exitDy=0;exitPerimeter=0;" parent="WIyWlLk6GJQsqaUBKTNV-1" target="-LXnq8vCpI6ecaMu8sqt-21" edge="1" source="-LXnq8vCpI6ecaMu8sqt-12">
          <mxGeometry relative="1" as="geometry">
            <mxPoint x="630" y="271" as="sourcePoint" />
            <mxPoint x="660" y="347" as="targetPoint" />
          </mxGeometry>
        </mxCell>
        <mxCell id="C3JBqGQTmtrp9U-Emt1c-22" value="1" style="edgeLabel;resizable=0;html=1;align=left;verticalAlign=top;" parent="C3JBqGQTmtrp9U-Emt1c-21" connectable="0" vertex="1">
          <mxGeometry x="-1" relative="1" as="geometry" />
        </mxCell>
        <mxCell id="C3JBqGQTmtrp9U-Emt1c-23" value="2" style="edgeLabel;resizable=0;html=1;align=right;verticalAlign=top;" parent="C3JBqGQTmtrp9U-Emt1c-21" connectable="0" vertex="1">
          <mxGeometry x="1" relative="1" as="geometry">
            <mxPoint x="20" y="-30" as="offset" />
          </mxGeometry>
        </mxCell>
        <mxCell id="C3JBqGQTmtrp9U-Emt1c-25" value="" style="endArrow=open;html=1;endSize=12;startArrow=diamondThin;startSize=14;startFill=0;edgeStyle=orthogonalEdgeStyle;rounded=0;entryX=1.011;entryY=0.595;entryDx=0;entryDy=0;entryPerimeter=0;exitX=0.514;exitY=1.004;exitDx=0;exitDy=0;exitPerimeter=0;" parent="WIyWlLk6GJQsqaUBKTNV-1" edge="1" target="-LXnq8vCpI6ecaMu8sqt-26" source="-LXnq8vCpI6ecaMu8sqt-14">
          <mxGeometry relative="1" as="geometry">
            <mxPoint x="530" y="320" as="sourcePoint" />
            <mxPoint x="530" y="390" as="targetPoint" />
          </mxGeometry>
        </mxCell>
        <mxCell id="C3JBqGQTmtrp9U-Emt1c-26" value="1" style="edgeLabel;resizable=0;html=1;align=left;verticalAlign=top;" parent="C3JBqGQTmtrp9U-Emt1c-25" connectable="0" vertex="1">
          <mxGeometry x="-1" relative="1" as="geometry">
            <mxPoint x="10" y="-10" as="offset" />
          </mxGeometry>
        </mxCell>
        <mxCell id="C3JBqGQTmtrp9U-Emt1c-27" value="5" style="edgeLabel;resizable=0;html=1;align=right;verticalAlign=top;" parent="C3JBqGQTmtrp9U-Emt1c-25" connectable="0" vertex="1">
          <mxGeometry x="1" relative="1" as="geometry">
            <mxPoint x="20" y="-30" as="offset" />
          </mxGeometry>
        </mxCell>
        <mxCell id="C3JBqGQTmtrp9U-Emt1c-28" value="" style="endArrow=open;html=1;endSize=12;startArrow=diamondThin;startSize=14;startFill=0;edgeStyle=orthogonalEdgeStyle;rounded=0;entryX=-0.013;entryY=0.852;entryDx=0;entryDy=0;entryPerimeter=0;exitX=0.5;exitY=1;exitDx=0;exitDy=0;" parent="WIyWlLk6GJQsqaUBKTNV-1" edge="1" target="-LXnq8vCpI6ecaMu8sqt-26" source="-LXnq8vCpI6ecaMu8sqt-6">
          <mxGeometry relative="1" as="geometry">
            <mxPoint x="199.5" y="320" as="sourcePoint" />
            <mxPoint x="200" y="370" as="targetPoint" />
            <Array as="points">
              <mxPoint x="185" y="453" />
            </Array>
          </mxGeometry>
        </mxCell>
        <mxCell id="C3JBqGQTmtrp9U-Emt1c-29" value="1" style="edgeLabel;resizable=0;html=1;align=left;verticalAlign=top;" parent="C3JBqGQTmtrp9U-Emt1c-28" connectable="0" vertex="1">
          <mxGeometry x="-1" relative="1" as="geometry">
            <mxPoint x="10" y="-10" as="offset" />
          </mxGeometry>
        </mxCell>
        <mxCell id="C3JBqGQTmtrp9U-Emt1c-30" value="1" style="edgeLabel;resizable=0;html=1;align=right;verticalAlign=top;" parent="C3JBqGQTmtrp9U-Emt1c-28" connectable="0" vertex="1">
          <mxGeometry x="1" relative="1" as="geometry">
            <mxPoint x="-17" y="-17" as="offset" />
          </mxGeometry>
        </mxCell>
        <mxCell id="C3JBqGQTmtrp9U-Emt1c-31" value="" style="endArrow=open;html=1;endSize=12;startArrow=diamondThin;startSize=14;startFill=0;edgeStyle=orthogonalEdgeStyle;rounded=0;entryX=0.482;entryY=0.017;entryDx=0;entryDy=0;exitX=0.468;exitY=1.019;exitDx=0;exitDy=0;exitPerimeter=0;entryPerimeter=0;" parent="WIyWlLk6GJQsqaUBKTNV-1" source="-LXnq8vCpI6ecaMu8sqt-28" edge="1" target="uzh5ktrCN8UJI7NPohJR-27">
          <mxGeometry relative="1" as="geometry">
            <mxPoint x="350" y="500" as="sourcePoint" />
            <mxPoint x="359.5" y="610" as="targetPoint" />
            <Array as="points">
              <mxPoint x="388" y="590" />
              <mxPoint x="387" y="590" />
            </Array>
          </mxGeometry>
        </mxCell>
        <mxCell id="C3JBqGQTmtrp9U-Emt1c-32" value="1" style="edgeLabel;resizable=0;html=1;align=left;verticalAlign=top;" parent="C3JBqGQTmtrp9U-Emt1c-31" connectable="0" vertex="1">
          <mxGeometry x="-1" relative="1" as="geometry">
            <mxPoint x="2" y="-2" as="offset" />
          </mxGeometry>
        </mxCell>
        <mxCell id="C3JBqGQTmtrp9U-Emt1c-33" value="n" style="edgeLabel;resizable=0;html=1;align=right;verticalAlign=top;" parent="C3JBqGQTmtrp9U-Emt1c-31" connectable="0" vertex="1">
          <mxGeometry x="1" relative="1" as="geometry">
            <mxPoint x="-10" y="-25" as="offset" />
          </mxGeometry>
        </mxCell>
        <mxCell id="C3JBqGQTmtrp9U-Emt1c-45" value="&lt;p style=&quot;margin:0px;margin-top:4px;text-align:center;&quot;&gt;&lt;i&gt;&amp;lt;&amp;lt;Interface&amp;gt;&amp;gt;&lt;/i&gt;&lt;br&gt;&lt;b&gt;IGame&lt;/b&gt;&lt;/p&gt;&lt;hr size=&quot;1&quot; style=&quot;border-style:solid;&quot;&gt;&lt;p style=&quot;margin:0px;margin-left:4px;&quot;&gt;+ startNewGame(): void&lt;br&gt;+ isGameOver(): void&lt;/p&gt;&lt;p style=&quot;margin:0px;margin-left:4px;&quot;&gt;+ isPaused(): boolean&lt;/p&gt;&lt;p style=&quot;margin:0px;margin-left:4px;&quot;&gt;+ checkForPause(): void&lt;/p&gt;&lt;p style=&quot;margin:0px;margin-left:4px;&quot;&gt;+&amp;nbsp;swop(): void&lt;/p&gt;&lt;p style=&quot;margin:0px;margin-left:4px;&quot;&gt;+ isRoundEnd(): void&lt;/p&gt;" style="verticalAlign=top;align=left;overflow=fill;html=1;whiteSpace=wrap;fillColor=#f8cecc;strokeColor=#b85450;" parent="WIyWlLk6GJQsqaUBKTNV-1" vertex="1">
          <mxGeometry x="670" y="83" width="190" height="140" as="geometry" />
        </mxCell>
        <mxCell id="C3JBqGQTmtrp9U-Emt1c-46" value="implementation" style="endArrow=block;endSize=16;endFill=0;html=1;rounded=0;entryX=-0.012;entryY=0.562;entryDx=0;entryDy=0;entryPerimeter=0;dashed=1;exitX=1;exitY=0.25;exitDx=0;exitDy=0;" parent="WIyWlLk6GJQsqaUBKTNV-1" source="-LXnq8vCpI6ecaMu8sqt-2" target="C3JBqGQTmtrp9U-Emt1c-45" edge="1">
          <mxGeometry x="-0.1731" y="20" width="160" relative="1" as="geometry">
            <mxPoint x="400" y="110" as="sourcePoint" />
            <mxPoint x="650" y="160" as="targetPoint" />
            <Array as="points">
              <mxPoint x="530" y="120" />
              <mxPoint x="540" y="130" />
              <mxPoint x="560" y="130" />
              <mxPoint x="560" y="160" />
            </Array>
            <mxPoint as="offset" />
          </mxGeometry>
        </mxCell>
        <mxCell id="C3JBqGQTmtrp9U-Emt1c-51" value="&lt;p style=&quot;margin:0px;margin-top:4px;text-align:center;&quot;&gt;&lt;i&gt;&amp;lt;&amp;lt;Interface&amp;gt;&amp;gt;&lt;/i&gt;&lt;br&gt;&lt;b&gt;IScreen&lt;/b&gt;&lt;/p&gt;&lt;hr size=&quot;1&quot; style=&quot;border-style:solid;&quot;&gt;&lt;p style=&quot;margin:0px;margin-left:4px;&quot;&gt;+ field1: Type&lt;br&gt;+ field2: Type&lt;/p&gt;&lt;hr size=&quot;1&quot; style=&quot;border-style:solid;&quot;&gt;&lt;p style=&quot;margin:0px;margin-left:4px;&quot;&gt;+ method1(Type): Type&lt;br&gt;+ method2(Type, Type): Type&lt;/p&gt;" style="verticalAlign=top;align=left;overflow=fill;html=1;whiteSpace=wrap;fillColor=#f8cecc;strokeColor=#b85450;" parent="WIyWlLk6GJQsqaUBKTNV-1" vertex="1">
          <mxGeometry x="880" y="-253" width="190" height="140" as="geometry" />
        </mxCell>
        <mxCell id="C3JBqGQTmtrp9U-Emt1c-56" value="&amp;lt;&amp;lt;enumeration&amp;gt;&amp;gt;&lt;br&gt;&lt;b&gt;ScreenEnum&lt;/b&gt;" style="swimlane;fontStyle=0;align=center;verticalAlign=top;childLayout=stackLayout;horizontal=1;startSize=40;horizontalStack=0;resizeParent=1;resizeParentMax=0;resizeLast=0;collapsible=0;marginBottom=0;html=1;whiteSpace=wrap;fillColor=#f8cecc;strokeColor=#b85450;" parent="WIyWlLk6GJQsqaUBKTNV-1" vertex="1">
          <mxGeometry x="800" y="-70" width="230" height="70" as="geometry" />
        </mxCell>
        <mxCell id="C3JBqGQTmtrp9U-Emt1c-57" value="RuleScreen, GameScreen, LoginScreen, ScoreScreen, MenuScreen" style="text;html=1;strokeColor=#b85450;fillColor=#f8cecc;align=left;verticalAlign=middle;spacingLeft=4;spacingRight=4;overflow=hidden;rotatable=0;points=[[0,0.5],[1,0.5]];portConstraint=eastwest;whiteSpace=wrap;" parent="C3JBqGQTmtrp9U-Emt1c-56" vertex="1">
          <mxGeometry y="40" width="230" height="30" as="geometry" />
        </mxCell>
        <mxCell id="C3JBqGQTmtrp9U-Emt1c-58" value="playerListener" style="swimlane;fontStyle=1;align=center;verticalAlign=top;childLayout=stackLayout;horizontal=1;startSize=26;horizontalStack=0;resizeParent=1;resizeParentMax=0;resizeLast=0;collapsible=1;marginBottom=0;whiteSpace=wrap;html=1;fillColor=#dae8fc;strokeColor=#6c8ebf;" parent="WIyWlLk6GJQsqaUBKTNV-1" vertex="1">
          <mxGeometry x="20" y="-154" width="160" height="130" as="geometry" />
        </mxCell>
        <mxCell id="C3JBqGQTmtrp9U-Emt1c-59" value="+ playerListener: Listener" style="text;strokeColor=#6c8ebf;fillColor=#dae8fc;align=left;verticalAlign=top;spacingLeft=4;spacingRight=4;overflow=hidden;rotatable=0;points=[[0,0.5],[1,0.5]];portConstraint=eastwest;whiteSpace=wrap;html=1;" parent="C3JBqGQTmtrp9U-Emt1c-58" vertex="1">
          <mxGeometry y="26" width="160" height="26" as="geometry" />
        </mxCell>
        <mxCell id="C3JBqGQTmtrp9U-Emt1c-60" value="" style="line;strokeWidth=1;fillColor=#dae8fc;align=left;verticalAlign=middle;spacingTop=-1;spacingLeft=3;spacingRight=3;rotatable=0;labelPosition=right;points=[];portConstraint=eastwest;strokeColor=#6c8ebf;" parent="C3JBqGQTmtrp9U-Emt1c-58" vertex="1">
          <mxGeometry y="52" width="160" height="8" as="geometry" />
        </mxCell>
        <mxCell id="C3JBqGQTmtrp9U-Emt1c-61" value="+ AddListener(): Listener&lt;div&gt;+ DelectListener(): Listener&lt;/div&gt;&lt;div&gt;+ notify(): void&lt;/div&gt;&lt;div&gt;+ isPlayerClick(): boolean&lt;/div&gt;" style="text;strokeColor=#6c8ebf;fillColor=#dae8fc;align=left;verticalAlign=top;spacingLeft=4;spacingRight=4;overflow=hidden;rotatable=0;points=[[0,0.5],[1,0.5]];portConstraint=eastwest;whiteSpace=wrap;html=1;" parent="C3JBqGQTmtrp9U-Emt1c-58" vertex="1">
          <mxGeometry y="60" width="160" height="70" as="geometry" />
        </mxCell>
        <mxCell id="C3JBqGQTmtrp9U-Emt1c-69" value="" style="endArrow=open;html=1;endSize=12;startArrow=diamondThin;startSize=14;startFill=1;edgeStyle=orthogonalEdgeStyle;rounded=0;entryX=0.455;entryY=0.007;entryDx=0;entryDy=0;entryPerimeter=0;exitX=0.499;exitY=1.001;exitDx=0;exitDy=0;exitPerimeter=0;" parent="WIyWlLk6GJQsqaUBKTNV-1" edge="1" target="-LXnq8vCpI6ecaMu8sqt-2" source="C3JBqGQTmtrp9U-Emt1c-14">
          <mxGeometry relative="1" as="geometry">
            <mxPoint x="400" y="20" as="sourcePoint" />
            <mxPoint x="399.5" y="110" as="targetPoint" />
            <Array as="points">
              <mxPoint x="395" />
              <mxPoint x="401" />
            </Array>
          </mxGeometry>
        </mxCell>
        <mxCell id="C3JBqGQTmtrp9U-Emt1c-70" value="1" style="edgeLabel;resizable=0;html=1;align=left;verticalAlign=top;" parent="C3JBqGQTmtrp9U-Emt1c-69" connectable="0" vertex="1">
          <mxGeometry x="-1" relative="1" as="geometry">
            <mxPoint x="10" y="-10" as="offset" />
          </mxGeometry>
        </mxCell>
        <mxCell id="C3JBqGQTmtrp9U-Emt1c-71" value="1" style="edgeLabel;resizable=0;html=1;align=right;verticalAlign=top;" parent="C3JBqGQTmtrp9U-Emt1c-69" connectable="0" vertex="1">
          <mxGeometry x="1" relative="1" as="geometry">
            <mxPoint x="20" y="-30" as="offset" />
          </mxGeometry>
        </mxCell>
        <mxCell id="C3JBqGQTmtrp9U-Emt1c-72" value="GameScreen" style="swimlane;fontStyle=1;align=center;verticalAlign=top;childLayout=stackLayout;horizontal=1;startSize=26;horizontalStack=0;resizeParent=1;resizeParentMax=0;resizeLast=0;collapsible=1;marginBottom=0;whiteSpace=wrap;html=1;fillColor=#dae8fc;strokeColor=#6c8ebf;" parent="WIyWlLk6GJQsqaUBKTNV-1" vertex="1">
          <mxGeometry x="590" y="-330" width="160" height="86" as="geometry" />
        </mxCell>
        <mxCell id="C3JBqGQTmtrp9U-Emt1c-73" value="+ field: type" style="text;strokeColor=#6c8ebf;fillColor=#dae8fc;align=left;verticalAlign=top;spacingLeft=4;spacingRight=4;overflow=hidden;rotatable=0;points=[[0,0.5],[1,0.5]];portConstraint=eastwest;whiteSpace=wrap;html=1;" parent="C3JBqGQTmtrp9U-Emt1c-72" vertex="1">
          <mxGeometry y="26" width="160" height="26" as="geometry" />
        </mxCell>
        <mxCell id="C3JBqGQTmtrp9U-Emt1c-74" value="" style="line;strokeWidth=1;fillColor=#dae8fc;align=left;verticalAlign=middle;spacingTop=-1;spacingLeft=3;spacingRight=3;rotatable=0;labelPosition=right;points=[];portConstraint=eastwest;strokeColor=#6c8ebf;" parent="C3JBqGQTmtrp9U-Emt1c-72" vertex="1">
          <mxGeometry y="52" width="160" height="8" as="geometry" />
        </mxCell>
        <mxCell id="C3JBqGQTmtrp9U-Emt1c-75" value="+ method(type): type" style="text;strokeColor=#6c8ebf;fillColor=#dae8fc;align=left;verticalAlign=top;spacingLeft=4;spacingRight=4;overflow=hidden;rotatable=0;points=[[0,0.5],[1,0.5]];portConstraint=eastwest;whiteSpace=wrap;html=1;" parent="C3JBqGQTmtrp9U-Emt1c-72" vertex="1">
          <mxGeometry y="60" width="160" height="26" as="geometry" />
        </mxCell>
        <mxCell id="C3JBqGQTmtrp9U-Emt1c-76" value="LoginScreen" style="swimlane;fontStyle=1;align=center;verticalAlign=top;childLayout=stackLayout;horizontal=1;startSize=26;horizontalStack=0;resizeParent=1;resizeParentMax=0;resizeLast=0;collapsible=1;marginBottom=0;whiteSpace=wrap;html=1;fillColor=#dae8fc;strokeColor=#6c8ebf;" parent="WIyWlLk6GJQsqaUBKTNV-1" vertex="1">
          <mxGeometry x="590" y="-226" width="160" height="86" as="geometry" />
        </mxCell>
        <mxCell id="C3JBqGQTmtrp9U-Emt1c-77" value="+ field: type" style="text;strokeColor=#6c8ebf;fillColor=#dae8fc;align=left;verticalAlign=top;spacingLeft=4;spacingRight=4;overflow=hidden;rotatable=0;points=[[0,0.5],[1,0.5]];portConstraint=eastwest;whiteSpace=wrap;html=1;" parent="C3JBqGQTmtrp9U-Emt1c-76" vertex="1">
          <mxGeometry y="26" width="160" height="26" as="geometry" />
        </mxCell>
        <mxCell id="C3JBqGQTmtrp9U-Emt1c-78" value="" style="line;strokeWidth=1;fillColor=#dae8fc;align=left;verticalAlign=middle;spacingTop=-1;spacingLeft=3;spacingRight=3;rotatable=0;labelPosition=right;points=[];portConstraint=eastwest;strokeColor=#6c8ebf;" parent="C3JBqGQTmtrp9U-Emt1c-76" vertex="1">
          <mxGeometry y="52" width="160" height="8" as="geometry" />
        </mxCell>
        <mxCell id="C3JBqGQTmtrp9U-Emt1c-79" value="+ method(type): type" style="text;strokeColor=#6c8ebf;fillColor=#dae8fc;align=left;verticalAlign=top;spacingLeft=4;spacingRight=4;overflow=hidden;rotatable=0;points=[[0,0.5],[1,0.5]];portConstraint=eastwest;whiteSpace=wrap;html=1;" parent="C3JBqGQTmtrp9U-Emt1c-76" vertex="1">
          <mxGeometry y="60" width="160" height="26" as="geometry" />
        </mxCell>
        <mxCell id="C3JBqGQTmtrp9U-Emt1c-80" value="ScoreScreen" style="swimlane;fontStyle=1;align=center;verticalAlign=top;childLayout=stackLayout;horizontal=1;startSize=26;horizontalStack=0;resizeParent=1;resizeParentMax=0;resizeLast=0;collapsible=1;marginBottom=0;whiteSpace=wrap;html=1;fillColor=#dae8fc;strokeColor=#6c8ebf;" parent="WIyWlLk6GJQsqaUBKTNV-1" vertex="1">
          <mxGeometry x="590" y="-120" width="160" height="86" as="geometry" />
        </mxCell>
        <mxCell id="C3JBqGQTmtrp9U-Emt1c-81" value="+ field: type" style="text;strokeColor=#6c8ebf;fillColor=#dae8fc;align=left;verticalAlign=top;spacingLeft=4;spacingRight=4;overflow=hidden;rotatable=0;points=[[0,0.5],[1,0.5]];portConstraint=eastwest;whiteSpace=wrap;html=1;" parent="C3JBqGQTmtrp9U-Emt1c-80" vertex="1">
          <mxGeometry y="26" width="160" height="26" as="geometry" />
        </mxCell>
        <mxCell id="C3JBqGQTmtrp9U-Emt1c-82" value="" style="line;strokeWidth=1;fillColor=#dae8fc;align=left;verticalAlign=middle;spacingTop=-1;spacingLeft=3;spacingRight=3;rotatable=0;labelPosition=right;points=[];portConstraint=eastwest;strokeColor=#6c8ebf;" parent="C3JBqGQTmtrp9U-Emt1c-80" vertex="1">
          <mxGeometry y="52" width="160" height="8" as="geometry" />
        </mxCell>
        <mxCell id="C3JBqGQTmtrp9U-Emt1c-83" value="+ method(type): type" style="text;strokeColor=#6c8ebf;fillColor=#dae8fc;align=left;verticalAlign=top;spacingLeft=4;spacingRight=4;overflow=hidden;rotatable=0;points=[[0,0.5],[1,0.5]];portConstraint=eastwest;whiteSpace=wrap;html=1;" parent="C3JBqGQTmtrp9U-Emt1c-80" vertex="1">
          <mxGeometry y="60" width="160" height="26" as="geometry" />
        </mxCell>
        <mxCell id="C3JBqGQTmtrp9U-Emt1c-84" value="MenuScreen" style="swimlane;fontStyle=1;align=center;verticalAlign=top;childLayout=stackLayout;horizontal=1;startSize=26;horizontalStack=0;resizeParent=1;resizeParentMax=0;resizeLast=0;collapsible=1;marginBottom=0;whiteSpace=wrap;html=1;fillColor=#dae8fc;strokeColor=#6c8ebf;" parent="WIyWlLk6GJQsqaUBKTNV-1" vertex="1">
          <mxGeometry x="590" y="-20" width="160" height="86" as="geometry" />
        </mxCell>
        <mxCell id="C3JBqGQTmtrp9U-Emt1c-85" value="+ field: type" style="text;strokeColor=#6c8ebf;fillColor=#dae8fc;align=left;verticalAlign=top;spacingLeft=4;spacingRight=4;overflow=hidden;rotatable=0;points=[[0,0.5],[1,0.5]];portConstraint=eastwest;whiteSpace=wrap;html=1;" parent="C3JBqGQTmtrp9U-Emt1c-84" vertex="1">
          <mxGeometry y="26" width="160" height="26" as="geometry" />
        </mxCell>
        <mxCell id="C3JBqGQTmtrp9U-Emt1c-86" value="" style="line;strokeWidth=1;fillColor=#dae8fc;align=left;verticalAlign=middle;spacingTop=-1;spacingLeft=3;spacingRight=3;rotatable=0;labelPosition=right;points=[];portConstraint=eastwest;strokeColor=#6c8ebf;" parent="C3JBqGQTmtrp9U-Emt1c-84" vertex="1">
          <mxGeometry y="52" width="160" height="8" as="geometry" />
        </mxCell>
        <mxCell id="C3JBqGQTmtrp9U-Emt1c-87" value="+ method(type): type" style="text;strokeColor=#6c8ebf;fillColor=#dae8fc;align=left;verticalAlign=top;spacingLeft=4;spacingRight=4;overflow=hidden;rotatable=0;points=[[0,0.5],[1,0.5]];portConstraint=eastwest;whiteSpace=wrap;html=1;" parent="C3JBqGQTmtrp9U-Emt1c-84" vertex="1">
          <mxGeometry y="60" width="160" height="26" as="geometry" />
        </mxCell>
        <mxCell id="C3JBqGQTmtrp9U-Emt1c-88" value="ApplicationStart" style="swimlane;fontStyle=1;align=center;verticalAlign=top;childLayout=stackLayout;horizontal=1;startSize=26;horizontalStack=0;resizeParent=1;resizeParentMax=0;resizeLast=0;collapsible=1;marginBottom=0;whiteSpace=wrap;html=1;fillColor=#dae8fc;strokeColor=#6c8ebf;" parent="WIyWlLk6GJQsqaUBKTNV-1" vertex="1">
          <mxGeometry x="30" y="-262" width="160" height="84" as="geometry" />
        </mxCell>
        <mxCell id="C3JBqGQTmtrp9U-Emt1c-90" value="" style="line;strokeWidth=1;fillColor=#dae8fc;align=left;verticalAlign=middle;spacingTop=-1;spacingLeft=3;spacingRight=3;rotatable=0;labelPosition=right;points=[];portConstraint=eastwest;strokeColor=#6c8ebf;" parent="C3JBqGQTmtrp9U-Emt1c-88" vertex="1">
          <mxGeometry y="26" width="160" height="8" as="geometry" />
        </mxCell>
        <mxCell id="C3JBqGQTmtrp9U-Emt1c-91" value="+ main(String[] args): void&lt;div&gt;+ start(Stage&lt;span style=&quot;background-color: initial;&quot;&gt;)&lt;/span&gt;&lt;/div&gt;" style="text;strokeColor=#6c8ebf;fillColor=#dae8fc;align=left;verticalAlign=top;spacingLeft=4;spacingRight=4;overflow=hidden;rotatable=0;points=[[0,0.5],[1,0.5]];portConstraint=eastwest;whiteSpace=wrap;html=1;" parent="C3JBqGQTmtrp9U-Emt1c-88" vertex="1">
          <mxGeometry y="34" width="160" height="50" as="geometry" />
        </mxCell>
        <mxCell id="C3JBqGQTmtrp9U-Emt1c-92" value="RuleScreen" style="swimlane;fontStyle=1;align=center;verticalAlign=top;childLayout=stackLayout;horizontal=1;startSize=26;horizontalStack=0;resizeParent=1;resizeParentMax=0;resizeLast=0;collapsible=1;marginBottom=0;whiteSpace=wrap;html=1;fillColor=#dae8fc;strokeColor=#6c8ebf;" parent="WIyWlLk6GJQsqaUBKTNV-1" vertex="1">
          <mxGeometry x="590" y="-430" width="160" height="86" as="geometry" />
        </mxCell>
        <mxCell id="C3JBqGQTmtrp9U-Emt1c-93" value="+ field: type" style="text;strokeColor=#6c8ebf;fillColor=#dae8fc;align=left;verticalAlign=top;spacingLeft=4;spacingRight=4;overflow=hidden;rotatable=0;points=[[0,0.5],[1,0.5]];portConstraint=eastwest;whiteSpace=wrap;html=1;" parent="C3JBqGQTmtrp9U-Emt1c-92" vertex="1">
          <mxGeometry y="26" width="160" height="26" as="geometry" />
        </mxCell>
        <mxCell id="C3JBqGQTmtrp9U-Emt1c-94" value="" style="line;strokeWidth=1;fillColor=#dae8fc;align=left;verticalAlign=middle;spacingTop=-1;spacingLeft=3;spacingRight=3;rotatable=0;labelPosition=right;points=[];portConstraint=eastwest;strokeColor=#6c8ebf;" parent="C3JBqGQTmtrp9U-Emt1c-92" vertex="1">
          <mxGeometry y="52" width="160" height="8" as="geometry" />
        </mxCell>
        <mxCell id="C3JBqGQTmtrp9U-Emt1c-95" value="+ method(type): type" style="text;strokeColor=#6c8ebf;fillColor=#dae8fc;align=left;verticalAlign=top;spacingLeft=4;spacingRight=4;overflow=hidden;rotatable=0;points=[[0,0.5],[1,0.5]];portConstraint=eastwest;whiteSpace=wrap;html=1;" parent="C3JBqGQTmtrp9U-Emt1c-92" vertex="1">
          <mxGeometry y="60" width="160" height="26" as="geometry" />
        </mxCell>
        <mxCell id="C3JBqGQTmtrp9U-Emt1c-97" value="" style="endArrow=open;endSize=12;dashed=1;html=1;rounded=0;exitX=-0.014;exitY=0.619;exitDx=0;exitDy=0;exitPerimeter=0;" parent="WIyWlLk6GJQsqaUBKTNV-1" source="C3JBqGQTmtrp9U-Emt1c-12" edge="1" target="C3JBqGQTmtrp9U-Emt1c-91">
          <mxGeometry width="160" relative="1" as="geometry">
            <mxPoint x="350" y="-80" as="sourcePoint" />
            <mxPoint x="240" y="-210" as="targetPoint" />
            <Array as="points">
              <mxPoint x="280" y="-210" />
              <mxPoint x="270" y="-210" />
            </Array>
          </mxGeometry>
        </mxCell>
        <mxCell id="C3JBqGQTmtrp9U-Emt1c-98" value="" style="endArrow=block;dashed=1;endFill=0;endSize=12;html=1;rounded=0;entryX=0;entryY=0.5;entryDx=0;entryDy=0;" parent="WIyWlLk6GJQsqaUBKTNV-1" target="C3JBqGQTmtrp9U-Emt1c-51" edge="1">
          <mxGeometry width="160" relative="1" as="geometry">
            <mxPoint x="750" y="-180" as="sourcePoint" />
            <mxPoint x="890" y="-180" as="targetPoint" />
          </mxGeometry>
        </mxCell>
        <mxCell id="C3JBqGQTmtrp9U-Emt1c-99" value="" style="endArrow=block;dashed=1;endFill=0;endSize=12;html=1;rounded=0;entryX=0;entryY=0.75;entryDx=0;entryDy=0;" parent="WIyWlLk6GJQsqaUBKTNV-1" target="C3JBqGQTmtrp9U-Emt1c-51" edge="1">
          <mxGeometry width="160" relative="1" as="geometry">
            <mxPoint x="750" y="-80" as="sourcePoint" />
            <mxPoint x="880" y="-180" as="targetPoint" />
          </mxGeometry>
        </mxCell>
        <mxCell id="C3JBqGQTmtrp9U-Emt1c-101" value="" style="endArrow=block;dashed=1;endFill=0;endSize=12;html=1;rounded=0;entryX=0.9;entryY=1.029;entryDx=0;entryDy=0;entryPerimeter=0;" parent="WIyWlLk6GJQsqaUBKTNV-1" target="C3JBqGQTmtrp9U-Emt1c-51" edge="1">
          <mxGeometry width="160" relative="1" as="geometry">
            <mxPoint x="750" y="20" as="sourcePoint" />
            <mxPoint x="880" y="-180" as="targetPoint" />
            <Array as="points">
              <mxPoint x="1050" y="20" />
            </Array>
          </mxGeometry>
        </mxCell>
        <mxCell id="C3JBqGQTmtrp9U-Emt1c-102" value="" style="endArrow=block;dashed=1;endFill=0;endSize=12;html=1;rounded=0;entryX=0.47;entryY=-0.014;entryDx=0;entryDy=0;entryPerimeter=0;" parent="WIyWlLk6GJQsqaUBKTNV-1" target="C3JBqGQTmtrp9U-Emt1c-51" edge="1">
          <mxGeometry width="160" relative="1" as="geometry">
            <mxPoint x="750" y="-290" as="sourcePoint" />
            <mxPoint x="910" y="-290" as="targetPoint" />
            <Array as="points">
              <mxPoint x="970" y="-290" />
            </Array>
          </mxGeometry>
        </mxCell>
        <mxCell id="C3JBqGQTmtrp9U-Emt1c-103" value="" style="endArrow=block;dashed=1;endFill=0;endSize=12;html=1;rounded=0;entryX=0.75;entryY=0;entryDx=0;entryDy=0;" parent="WIyWlLk6GJQsqaUBKTNV-1" target="C3JBqGQTmtrp9U-Emt1c-51" edge="1">
          <mxGeometry width="160" relative="1" as="geometry">
            <mxPoint x="750" y="-380" as="sourcePoint" />
            <mxPoint x="910" y="-380" as="targetPoint" />
            <Array as="points">
              <mxPoint x="1023" y="-380" />
            </Array>
          </mxGeometry>
        </mxCell>
        <mxCell id="C3JBqGQTmtrp9U-Emt1c-111" value="" style="endArrow=open;endFill=1;endSize=12;html=1;rounded=0;entryX=0;entryY=0.5;entryDx=0;entryDy=0;" parent="WIyWlLk6GJQsqaUBKTNV-1" target="C3JBqGQTmtrp9U-Emt1c-73" edge="1">
          <mxGeometry width="160" relative="1" as="geometry">
            <mxPoint x="520" y="-350" as="sourcePoint" />
            <mxPoint x="580" y="-287.43" as="targetPoint" />
          </mxGeometry>
        </mxCell>
        <mxCell id="C3JBqGQTmtrp9U-Emt1c-114" value="1" style="text;html=1;align=center;verticalAlign=middle;resizable=0;points=[];autosize=1;strokeColor=none;fillColor=none;" parent="WIyWlLk6GJQsqaUBKTNV-1" vertex="1">
          <mxGeometry x="555" y="-292" width="30" height="30" as="geometry" />
        </mxCell>
        <mxCell id="C3JBqGQTmtrp9U-Emt1c-115" value="" style="endArrow=open;endFill=1;endSize=12;html=1;rounded=0;" parent="WIyWlLk6GJQsqaUBKTNV-1" edge="1">
          <mxGeometry width="160" relative="1" as="geometry">
            <mxPoint x="520" y="-320" as="sourcePoint" />
            <mxPoint x="590" y="-174" as="targetPoint" />
          </mxGeometry>
        </mxCell>
        <mxCell id="C3JBqGQTmtrp9U-Emt1c-116" value="1" style="text;html=1;align=center;verticalAlign=middle;resizable=0;points=[];autosize=1;strokeColor=none;fillColor=none;" parent="WIyWlLk6GJQsqaUBKTNV-1" vertex="1">
          <mxGeometry x="560" y="-203" width="30" height="30" as="geometry" />
        </mxCell>
        <mxCell id="C3JBqGQTmtrp9U-Emt1c-117" value="" style="endArrow=open;endFill=1;endSize=12;html=1;rounded=0;entryX=0;entryY=0.5;entryDx=0;entryDy=0;" parent="WIyWlLk6GJQsqaUBKTNV-1" target="C3JBqGQTmtrp9U-Emt1c-81" edge="1">
          <mxGeometry width="160" relative="1" as="geometry">
            <mxPoint x="520" y="-280" as="sourcePoint" />
            <mxPoint x="580" y="-120" as="targetPoint" />
            <Array as="points">
              <mxPoint x="550" y="-210" />
              <mxPoint x="540" y="-120" />
              <mxPoint x="540" y="-80" />
            </Array>
          </mxGeometry>
        </mxCell>
        <mxCell id="C3JBqGQTmtrp9U-Emt1c-118" value="1" style="text;html=1;align=center;verticalAlign=middle;resizable=0;points=[];autosize=1;strokeColor=none;fillColor=none;" parent="WIyWlLk6GJQsqaUBKTNV-1" vertex="1">
          <mxGeometry x="555" y="-82" width="30" height="30" as="geometry" />
        </mxCell>
        <mxCell id="C3JBqGQTmtrp9U-Emt1c-119" value="" style="endArrow=open;endFill=1;endSize=12;html=1;rounded=0;entryX=0;entryY=0.5;entryDx=0;entryDy=0;" parent="WIyWlLk6GJQsqaUBKTNV-1" target="C3JBqGQTmtrp9U-Emt1c-85" edge="1">
          <mxGeometry width="160" relative="1" as="geometry">
            <mxPoint x="520" y="-220" as="sourcePoint" />
            <mxPoint x="550" y="-100" as="targetPoint" />
            <Array as="points">
              <mxPoint x="530" y="-170" />
              <mxPoint x="510" y="-110" />
              <mxPoint x="510" y="20" />
            </Array>
          </mxGeometry>
        </mxCell>
        <mxCell id="C3JBqGQTmtrp9U-Emt1c-120" value="1" style="text;html=1;align=center;verticalAlign=middle;resizable=0;points=[];autosize=1;strokeColor=none;fillColor=none;" parent="WIyWlLk6GJQsqaUBKTNV-1" vertex="1">
          <mxGeometry x="555" y="18" width="30" height="30" as="geometry" />
        </mxCell>
        <mxCell id="YAI7VHFAw-m9FzAFcQ7--6" value="1" style="endArrow=open;html=1;endSize=12;startArrow=diamondThin;startSize=14;startFill=1;edgeStyle=orthogonalEdgeStyle;align=left;verticalAlign=bottom;rounded=0;entryX=-0.019;entryY=0.808;entryDx=0;entryDy=0;entryPerimeter=0;" parent="WIyWlLk6GJQsqaUBKTNV-1" target="C3JBqGQTmtrp9U-Emt1c-93" edge="1">
          <mxGeometry x="-0.9331" y="-20" relative="1" as="geometry">
            <mxPoint x="491" y="-210" as="sourcePoint" />
            <mxPoint x="570" y="-226" as="targetPoint" />
            <Array as="points">
              <mxPoint x="491" y="-210" />
              <mxPoint x="520" y="-210" />
              <mxPoint x="520" y="-383" />
            </Array>
            <mxPoint as="offset" />
          </mxGeometry>
        </mxCell>
        <mxCell id="YAI7VHFAw-m9FzAFcQ7--7" value="1" style="text;html=1;align=center;verticalAlign=middle;resizable=0;points=[];autosize=1;strokeColor=none;fillColor=none;" parent="WIyWlLk6GJQsqaUBKTNV-1" vertex="1">
          <mxGeometry x="555" y="-380" width="30" height="30" as="geometry" />
        </mxCell>
        <mxCell id="uzh5ktrCN8UJI7NPohJR-0" value="&amp;lt;&amp;lt;enumeration&amp;gt;&amp;gt;&lt;br&gt;&lt;b&gt;PlayerLocation&lt;/b&gt;" style="swimlane;fontStyle=0;align=center;verticalAlign=top;childLayout=stackLayout;horizontal=1;startSize=40;horizontalStack=0;resizeParent=1;resizeParentMax=0;resizeLast=0;collapsible=0;marginBottom=0;html=1;whiteSpace=wrap;fillColor=#d5e8d4;strokeColor=#82b366;" parent="WIyWlLk6GJQsqaUBKTNV-1" vertex="1">
          <mxGeometry x="-60" y="223" width="140" height="70" as="geometry" />
        </mxCell>
        <mxCell id="uzh5ktrCN8UJI7NPohJR-1" value="west, east, south, north" style="text;html=1;strokeColor=#82b366;fillColor=#d5e8d4;align=left;verticalAlign=middle;spacingLeft=4;spacingRight=4;overflow=hidden;rotatable=0;points=[[0,0.5],[1,0.5]];portConstraint=eastwest;whiteSpace=wrap;" parent="uzh5ktrCN8UJI7NPohJR-0" vertex="1">
          <mxGeometry y="40" width="140" height="30" as="geometry" />
        </mxCell>
        <mxCell id="uzh5ktrCN8UJI7NPohJR-25" value="&lt;p style=&quot;margin:0px;margin-top:4px;text-align:center;&quot;&gt;&lt;b&gt;NumberTile&lt;/b&gt;&lt;/p&gt;&lt;hr size=&quot;1&quot; style=&quot;border-style:solid;&quot;&gt;&lt;p style=&quot;margin:0px;margin-left:4px;&quot;&gt;- rank: int&lt;/p&gt;&lt;hr size=&quot;1&quot; style=&quot;border-style:solid;&quot;&gt;&lt;p style=&quot;margin:0px;margin-left:4px;&quot;&gt;+ NumberTile()&lt;/p&gt;&lt;p style=&quot;margin:0px;margin-left:4px;&quot;&gt;+ getRank(): int&lt;/p&gt;" style="verticalAlign=top;align=left;overflow=fill;html=1;whiteSpace=wrap;fillColor=#d5e8d4;strokeColor=#82b366;" parent="WIyWlLk6GJQsqaUBKTNV-1" vertex="1">
          <mxGeometry x="160" y="670" width="160" height="90" as="geometry" />
        </mxCell>
        <mxCell id="uzh5ktrCN8UJI7NPohJR-26" value="&lt;p style=&quot;margin:0px;margin-top:4px;text-align:center;&quot;&gt;&lt;b&gt;WindAndDrangonTile&lt;/b&gt;&lt;/p&gt;&lt;hr size=&quot;1&quot; style=&quot;border-style:solid;&quot;&gt;&lt;p style=&quot;margin:0px;margin-left:4px;&quot;&gt;&lt;/p&gt;&lt;p style=&quot;margin:0px;margin-left:4px;&quot;&gt;+ WindAndDrangon(int)&lt;/p&gt;" style="verticalAlign=top;align=left;overflow=fill;html=1;whiteSpace=wrap;fillColor=#d5e8d4;strokeColor=#82b366;" parent="WIyWlLk6GJQsqaUBKTNV-1" vertex="1">
          <mxGeometry x="395" y="670" width="160" height="90" as="geometry" />
        </mxCell>
        <mxCell id="uzh5ktrCN8UJI7NPohJR-27" value="TileFactory" style="swimlane;fontStyle=1;align=center;verticalAlign=top;childLayout=stackLayout;horizontal=1;startSize=26;horizontalStack=0;resizeParent=1;resizeParentMax=0;resizeLast=0;collapsible=1;marginBottom=0;whiteSpace=wrap;html=1;fillColor=#d5e8d4;strokeColor=#82b366;" parent="WIyWlLk6GJQsqaUBKTNV-1" vertex="1">
          <mxGeometry x="310" y="600" width="160" height="60" as="geometry" />
        </mxCell>
        <mxCell id="uzh5ktrCN8UJI7NPohJR-29" value="" style="line;strokeWidth=1;fillColor=#d5e8d4;align=left;verticalAlign=middle;spacingTop=-1;spacingLeft=3;spacingRight=3;rotatable=0;labelPosition=right;points=[];portConstraint=eastwest;strokeColor=#82b366;" parent="uzh5ktrCN8UJI7NPohJR-27" vertex="1">
          <mxGeometry y="26" width="160" height="8" as="geometry" />
        </mxCell>
        <mxCell id="uzh5ktrCN8UJI7NPohJR-30" value="+ createTile(int type): Tile" style="text;strokeColor=#82b366;fillColor=#d5e8d4;align=left;verticalAlign=top;spacingLeft=4;spacingRight=4;overflow=hidden;rotatable=0;points=[[0,0.5],[1,0.5]];portConstraint=eastwest;whiteSpace=wrap;html=1;" parent="uzh5ktrCN8UJI7NPohJR-27" vertex="1">
          <mxGeometry y="34" width="160" height="26" as="geometry" />
        </mxCell>
        <mxCell id="uzh5ktrCN8UJI7NPohJR-31" value="Extends" style="endArrow=block;endSize=16;endFill=0;html=1;rounded=0;entryX=-0.013;entryY=0.822;entryDx=0;entryDy=0;entryPerimeter=0;exitX=0.25;exitY=1;exitDx=0;exitDy=0;" parent="WIyWlLk6GJQsqaUBKTNV-1" source="uzh5ktrCN8UJI7NPohJR-25" target="-LXnq8vCpI6ecaMu8sqt-18" edge="1">
          <mxGeometry width="160" relative="1" as="geometry">
            <mxPoint x="160" y="840" as="sourcePoint" />
            <mxPoint x="320" y="840" as="targetPoint" />
            <Array as="points">
              <mxPoint x="200" y="852" />
            </Array>
          </mxGeometry>
        </mxCell>
        <mxCell id="uzh5ktrCN8UJI7NPohJR-32" value="Extends" style="endArrow=block;endSize=16;endFill=0;html=1;rounded=0;exitX=0.5;exitY=1;exitDx=0;exitDy=0;entryX=1.001;entryY=0.872;entryDx=0;entryDy=0;entryPerimeter=0;" parent="WIyWlLk6GJQsqaUBKTNV-1" source="uzh5ktrCN8UJI7NPohJR-26" target="-LXnq8vCpI6ecaMu8sqt-18" edge="1">
          <mxGeometry width="160" relative="1" as="geometry">
            <mxPoint x="480" y="850" as="sourcePoint" />
            <mxPoint x="640" y="850" as="targetPoint" />
            <Array as="points">
              <mxPoint x="475" y="850" />
            </Array>
          </mxGeometry>
        </mxCell>
        <mxCell id="uzh5ktrCN8UJI7NPohJR-33" value="1" style="endArrow=open;html=1;endSize=12;startArrow=diamondThin;startSize=14;startFill=1;edgeStyle=orthogonalEdgeStyle;align=left;verticalAlign=bottom;rounded=0;entryX=0.337;entryY=-0.019;entryDx=0;entryDy=0;entryPerimeter=0;exitX=0;exitY=0.5;exitDx=0;exitDy=0;exitPerimeter=0;" parent="WIyWlLk6GJQsqaUBKTNV-1" source="uzh5ktrCN8UJI7NPohJR-29" target="uzh5ktrCN8UJI7NPohJR-25" edge="1">
          <mxGeometry x="-0.723" y="10" relative="1" as="geometry">
            <mxPoint x="80" y="680" as="sourcePoint" />
            <mxPoint x="240" y="680" as="targetPoint" />
            <mxPoint as="offset" />
          </mxGeometry>
        </mxCell>
        <mxCell id="uzh5ktrCN8UJI7NPohJR-34" value="1" style="endArrow=open;html=1;endSize=12;startArrow=diamondThin;startSize=14;startFill=1;edgeStyle=orthogonalEdgeStyle;align=left;verticalAlign=bottom;rounded=0;exitX=1;exitY=0.5;exitDx=0;exitDy=0;entryX=0.75;entryY=0;entryDx=0;entryDy=0;" parent="WIyWlLk6GJQsqaUBKTNV-1" source="uzh5ktrCN8UJI7NPohJR-27" target="uzh5ktrCN8UJI7NPohJR-26" edge="1">
          <mxGeometry x="-1" y="3" relative="1" as="geometry">
            <mxPoint x="480" y="640" as="sourcePoint" />
            <mxPoint x="640" y="640" as="targetPoint" />
          </mxGeometry>
        </mxCell>
        <mxCell id="bJaYTnNqbc95CWGT1Lss-0" value="&lt;span style=&quot;color: rgb(0, 0, 0); font-family: Helvetica; font-size: 11px; font-style: normal; font-variant-ligatures: normal; font-variant-caps: normal; font-weight: 400; letter-spacing: normal; orphans: 2; text-align: center; text-indent: 0px; text-transform: none; widows: 2; word-spacing: 0px; -webkit-text-stroke-width: 0px; white-space: nowrap; background-color: rgb(255, 255, 255); text-decoration-thickness: initial; text-decoration-style: initial; text-decoration-color: initial; display: inline !important; float: none;&quot;&gt;implementation&lt;/span&gt;" style="text;whiteSpace=wrap;html=1;" vertex="1" parent="WIyWlLk6GJQsqaUBKTNV-1">
          <mxGeometry x="210" y="-232" width="80" height="24" as="geometry" />
        </mxCell>
        <mxCell id="bJaYTnNqbc95CWGT1Lss-1" value="&lt;span style=&quot;color: rgb(0, 0, 0); font-family: Helvetica; font-size: 11px; font-style: normal; font-variant-ligatures: normal; font-variant-caps: normal; font-weight: 400; letter-spacing: normal; orphans: 2; text-align: center; text-indent: 0px; text-transform: none; widows: 2; word-spacing: 0px; -webkit-text-stroke-width: 0px; white-space: nowrap; background-color: rgb(255, 255, 255); text-decoration-thickness: initial; text-decoration-style: initial; text-decoration-color: initial; display: inline !important; float: none;&quot;&gt;implementation&lt;/span&gt;" style="text;whiteSpace=wrap;html=1;" vertex="1" parent="WIyWlLk6GJQsqaUBKTNV-1">
          <mxGeometry x="940" y="-400" width="110" height="40" as="geometry" />
        </mxCell>
        <mxCell id="bJaYTnNqbc95CWGT1Lss-2" value="&lt;span style=&quot;color: rgb(0, 0, 0); font-family: Helvetica; font-size: 11px; font-style: normal; font-variant-ligatures: normal; font-variant-caps: normal; font-weight: 400; letter-spacing: normal; orphans: 2; text-align: center; text-indent: 0px; text-transform: none; widows: 2; word-spacing: 0px; -webkit-text-stroke-width: 0px; white-space: nowrap; background-color: rgb(255, 255, 255); text-decoration-thickness: initial; text-decoration-style: initial; text-decoration-color: initial; display: inline !important; float: none;&quot;&gt;implementation&lt;/span&gt;" style="text;whiteSpace=wrap;html=1;" vertex="1" parent="WIyWlLk6GJQsqaUBKTNV-1">
          <mxGeometry x="850" y="-320" width="110" height="40" as="geometry" />
        </mxCell>
        <mxCell id="bJaYTnNqbc95CWGT1Lss-5" value="&lt;span style=&quot;color: rgb(0, 0, 0); font-family: Helvetica; font-size: 11px; font-style: normal; font-variant-ligatures: normal; font-variant-caps: normal; font-weight: 400; letter-spacing: normal; orphans: 2; text-align: center; text-indent: 0px; text-transform: none; widows: 2; word-spacing: 0px; -webkit-text-stroke-width: 0px; white-space: nowrap; background-color: rgb(255, 255, 255); text-decoration-thickness: initial; text-decoration-style: initial; text-decoration-color: initial; display: inline !important; float: none;&quot;&gt;implementation&lt;/span&gt;" style="text;whiteSpace=wrap;html=1;" vertex="1" parent="WIyWlLk6GJQsqaUBKTNV-1">
          <mxGeometry x="760" y="-203" width="110" height="40" as="geometry" />
        </mxCell>
        <mxCell id="bJaYTnNqbc95CWGT1Lss-7" value="&lt;span style=&quot;color: rgb(0, 0, 0); font-family: Helvetica; font-size: 11px; font-style: normal; font-variant-ligatures: normal; font-variant-caps: normal; font-weight: 400; letter-spacing: normal; orphans: 2; text-align: center; text-indent: 0px; text-transform: none; widows: 2; word-spacing: 0px; -webkit-text-stroke-width: 0px; white-space: nowrap; background-color: rgb(255, 255, 255); text-decoration-thickness: initial; text-decoration-style: initial; text-decoration-color: initial; display: inline !important; float: none;&quot;&gt;implementation&lt;/span&gt;" style="text;whiteSpace=wrap;html=1;rotation=-30;" vertex="1" parent="WIyWlLk6GJQsqaUBKTNV-1">
          <mxGeometry x="770" y="-122" width="110" height="40" as="geometry" />
        </mxCell>
        <mxCell id="bJaYTnNqbc95CWGT1Lss-9" value="&lt;span style=&quot;color: rgb(0, 0, 0); font-family: Helvetica; font-size: 11px; font-style: normal; font-variant-ligatures: normal; font-variant-caps: normal; font-weight: 400; letter-spacing: normal; orphans: 2; text-align: center; text-indent: 0px; text-transform: none; widows: 2; word-spacing: 0px; -webkit-text-stroke-width: 0px; white-space: nowrap; background-color: rgb(255, 255, 255); text-decoration-thickness: initial; text-decoration-style: initial; text-decoration-color: initial; display: inline !important; float: none;&quot;&gt;implementation&lt;/span&gt;" style="text;whiteSpace=wrap;html=1;" vertex="1" parent="WIyWlLk6GJQsqaUBKTNV-1">
          <mxGeometry x="860" width="110" height="40" as="geometry" />
        </mxCell>
        <mxCell id="bJaYTnNqbc95CWGT1Lss-12" value="" style="endArrow=open;endFill=1;endSize=12;html=1;rounded=0;entryX=0.5;entryY=1;entryDx=0;entryDy=0;exitX=0.25;exitY=0;exitDx=0;exitDy=0;" edge="1" parent="WIyWlLk6GJQsqaUBKTNV-1" source="-LXnq8vCpI6ecaMu8sqt-6" target="C3JBqGQTmtrp9U-Emt1c-58">
          <mxGeometry width="160" relative="1" as="geometry">
            <mxPoint x="110" y="70" as="sourcePoint" />
            <mxPoint x="270" y="70" as="targetPoint" />
            <Array as="points">
              <mxPoint x="180" y="20" />
            </Array>
          </mxGeometry>
        </mxCell>
        <mxCell id="bJaYTnNqbc95CWGT1Lss-13" value="Observed" style="text;html=1;align=center;verticalAlign=middle;resizable=0;points=[];autosize=1;strokeColor=none;fillColor=none;rotation=-84;" vertex="1" parent="WIyWlLk6GJQsqaUBKTNV-1">
          <mxGeometry x="140" y="90" width="80" height="30" as="geometry" />
        </mxCell>
        <mxCell id="bJaYTnNqbc95CWGT1Lss-14" value="&lt;p style=&quot;margin:0px;margin-top:4px;text-align:center;&quot;&gt;&lt;i&gt;&amp;lt;&amp;lt;Interface&amp;gt;&amp;gt;&lt;/i&gt;&lt;br&gt;&lt;b&gt;IListener&lt;/b&gt;&lt;/p&gt;&lt;p style=&quot;margin:0px;margin-left:4px;&quot;&gt;&lt;br&gt;&lt;/p&gt;&lt;hr size=&quot;1&quot; style=&quot;border-style:solid;&quot;&gt;&lt;p style=&quot;margin:0px;margin-left:4px;&quot;&gt;+ AddListener(): Listener&lt;br&gt;+ DelectListener(): void&lt;/p&gt;" style="verticalAlign=top;align=left;overflow=fill;html=1;whiteSpace=wrap;fillColor=#dae8fc;strokeColor=#6c8ebf;" vertex="1" parent="WIyWlLk6GJQsqaUBKTNV-1">
          <mxGeometry x="-70" y="30" width="190" height="100" as="geometry" />
        </mxCell>
        <mxCell id="bJaYTnNqbc95CWGT1Lss-15" value="" style="endArrow=block;dashed=1;endFill=0;endSize=12;html=1;rounded=0;entryX=0.177;entryY=0.959;entryDx=0;entryDy=0;entryPerimeter=0;exitX=0.456;exitY=-0.003;exitDx=0;exitDy=0;exitPerimeter=0;" edge="1" parent="WIyWlLk6GJQsqaUBKTNV-1" source="bJaYTnNqbc95CWGT1Lss-14" target="C3JBqGQTmtrp9U-Emt1c-61">
          <mxGeometry width="160" relative="1" as="geometry">
            <mxPoint x="48" y="20" as="sourcePoint" />
            <mxPoint x="40" y="-10" as="targetPoint" />
          </mxGeometry>
        </mxCell>
        <mxCell id="bJaYTnNqbc95CWGT1Lss-16" value="implementation" style="text;html=1;align=center;verticalAlign=middle;resizable=0;points=[];autosize=1;strokeColor=none;fillColor=none;" vertex="1" parent="WIyWlLk6GJQsqaUBKTNV-1">
          <mxGeometry x="10" y="-12" width="100" height="30" as="geometry" />
        </mxCell>
        <mxCell id="bJaYTnNqbc95CWGT1Lss-17" value="" style="endArrow=open;html=1;endSize=12;startArrow=diamondThin;startSize=14;startFill=0;edgeStyle=orthogonalEdgeStyle;rounded=0;exitX=-0.001;exitY=0.084;exitDx=0;exitDy=0;exitPerimeter=0;entryX=1;entryY=0.5;entryDx=0;entryDy=0;" edge="1" parent="WIyWlLk6GJQsqaUBKTNV-1" source="-LXnq8vCpI6ecaMu8sqt-2" target="C3JBqGQTmtrp9U-Emt1c-59">
          <mxGeometry relative="1" as="geometry">
            <mxPoint x="210" y="-113" as="sourcePoint" />
            <mxPoint x="370" y="-113" as="targetPoint" />
            <Array as="points">
              <mxPoint x="250" y="69" />
              <mxPoint x="250" y="-115" />
            </Array>
          </mxGeometry>
        </mxCell>
        <mxCell id="bJaYTnNqbc95CWGT1Lss-18" value="1" style="edgeLabel;resizable=0;html=1;align=left;verticalAlign=top;" connectable="0" vertex="1" parent="bJaYTnNqbc95CWGT1Lss-17">
          <mxGeometry x="-1" relative="1" as="geometry">
            <mxPoint x="-29" y="-17" as="offset" />
          </mxGeometry>
        </mxCell>
        <mxCell id="bJaYTnNqbc95CWGT1Lss-19" value="1" style="edgeLabel;resizable=0;html=1;align=right;verticalAlign=top;" connectable="0" vertex="1" parent="bJaYTnNqbc95CWGT1Lss-17">
          <mxGeometry x="1" relative="1" as="geometry">
            <mxPoint x="20" as="offset" />
          </mxGeometry>
        </mxCell>
        <mxCell id="C3JBqGQTmtrp9U-Emt1c-0" value="" style="endArrow=none;startArrow=none;endFill=0;startFill=0;endSize=8;html=1;verticalAlign=bottom;labelBackgroundColor=none;strokeWidth=3;rounded=0;entryX=0;entryY=0.5;entryDx=0;entryDy=0;exitX=1.007;exitY=0.437;exitDx=0;exitDy=0;exitPerimeter=0;" parent="WIyWlLk6GJQsqaUBKTNV-1" target="-LXnq8vCpI6ecaMu8sqt-12" edge="1" source="-LXnq8vCpI6ecaMu8sqt-9">
          <mxGeometry width="160" relative="1" as="geometry">
            <mxPoint x="280" y="175" as="sourcePoint" />
            <mxPoint x="430" y="176" as="targetPoint" />
          </mxGeometry>
        </mxCell>
      </root>
    </mxGraphModel>
  </diagram>
</mxfile>
